<?xml version="1.0" encoding="UTF-8" standalone="no"?>
<!DOCTYPE svg PUBLIC "-//W3C//DTD SVG 1.1//EN" "http://www.w3.org/Graphics/SVG/1.1/DTD/svg11.dtd">
<svg width="100%" height="100%" viewBox="0 0 57 57" version="1.1" xmlns="http://www.w3.org/2000/svg" xmlns:xlink="http://www.w3.org/1999/xlink" xml:space="preserve" xmlns:serif="http://www.serif.com/" style="fill-rule:evenodd;clip-rule:evenodd;stroke-linejoin:round;stroke-miterlimit:2;">
    <g transform="matrix(1,0,0,1,-42.5197,-70.8661)">
        <g transform="matrix(0.699962,0,0,0.699962,-124.993,-9.87891)">
            <circle cx="279.815" cy="155.853" r="40.497" style="fill:rgb(209,0,10);"/>
        </g>
        <g transform="matrix(7.55,0,0,7.55,-1862.24,-1114.08)">
            <g transform="matrix(4.76821,0,0,4.76821,254.265,162.385)">
                <path d="M0.285,-0.712L0.285,-0.168C0.285,-0.119 0.27,-0.079 0.239,-0.046C0.224,-0.03 0.206,-0.017 0.185,-0.008C0.164,0.001 0.139,0.006 0.111,0.006C0.078,0.006 0.051,-0.001 0.03,-0.016C0.008,-0.03 -0.009,-0.044 -0.022,-0.058L0.058,-0.122C0.065,-0.115 0.074,-0.109 0.084,-0.104C0.093,-0.098 0.103,-0.096 0.114,-0.096C0.12,-0.096 0.127,-0.097 0.135,-0.1C0.143,-0.102 0.151,-0.106 0.158,-0.113C0.165,-0.119 0.171,-0.128 0.176,-0.139C0.181,-0.15 0.183,-0.164 0.183,-0.182L0.183,-0.712L0.285,-0.712Z" style="fill:white;fill-rule:nonzero;"/>
            </g>
            <g transform="matrix(4.76821,0,0,4.76821,255.853,162.385)">
                <path d="M0.048,-0L0.048,-0.712L0.199,-0.712C0.258,-0.712 0.302,-0.696 0.333,-0.664C0.363,-0.632 0.378,-0.587 0.378,-0.528L0.378,-0.195C0.378,-0.128 0.362,-0.079 0.33,-0.048C0.297,-0.016 0.251,-0 0.19,-0L0.048,-0ZM0.15,-0.616L0.15,-0.096L0.197,-0.096C0.226,-0.096 0.246,-0.103 0.258,-0.118C0.27,-0.132 0.276,-0.154 0.276,-0.185L0.276,-0.528C0.276,-0.556 0.27,-0.578 0.259,-0.593C0.248,-0.608 0.227,-0.616 0.197,-0.616L0.15,-0.616Z" style="fill:white;fill-rule:nonzero;"/>
            </g>
        </g>
    </g>
</svg>
